<svg xmlns="http://www.w3.org/2000/svg" viewBox="0 0 3500.05 1082.48"><defs><style>.a{fill:#9d9d9c;}.b{fill:#ddd;}.c{fill:#fff;}.d{fill:#ffcf02;}.e{fill:none;stroke:#eb5d1c;stroke-miterlimit:10;stroke-width:2px;}.f{fill:#e40a20;}</style></defs><title>fest1_2018_bgAsset 4</title><rect class="a" width="3500.05" height="906.12" transform="translate(3500.05 906.12) rotate(180)"/><path class="b" d="M2687.29,81l17.65-22.16,65.36,58,69.34,194-.85,9.46s-26,24.21-26.65,75.21,11.66,305,0,320l-81.53,69.29-133.13,10.71s97-311,96-430S2687.29,81,2687.29,81"/><path class="c" d="M3000.66,771.54S2985,768,2955,780c0,0-289.5,234.5-410.5,256.5s-178.05,32.44-178.05,45.94l-148.49-61.65s-3-109.48,68.54-131.29l353.28-107.69A1135.73,1135.73,0,0,0,2747,743.18c58.37-24.43,143.3-61.54,163.18-78.64,31-26.67,152.33-132.34,159.66-136.67s9.8-22.78,9.8-22.78l13-11.92,78.67,51.33-17.67,38.67-139.33,194Z"/><path class="d" d="M2819.15,505.09s-5.17-33.3-2.67-36.8,12.7-9.75,9-16.75-9.66-15.22-8.27-18.17c2-4.17-1.07-4.58-1.38-9.33s25.43-13.25,18.93-22.25-18.08-12.05-16.5-14.5c.92-1.42,8.42-1.42,7.22-4.5-2.23-5.77-10.8-6.25-8.22-10,2.29-3.33,47.08-1.47,30.08-17.25-14-13,19-10.5,21.56-22.43,2-9.21-20.06,1.26-27.87-8-2.21-14-4.52-78.54-4.52-78.54L2778,157l-39-82.5h-45.49l-13,6.45a444.71,444.71,0,0,1,0,65.88c-2.67,37.33,14.34,183.26,7.33,214.67-4.16,18.66-15.16,23.5-16.16,34.33-.89,9.65,13.58,15.67,11.4,30.33-.41,2.75-5.57,35-5.57,35S2743.15,490.31,2819.15,505.09Z"/><line class="e" x1="2812.14" y1="500.14" x2="2809.48" y2="470.87"/><line class="e" x1="2806.15" y1="498.54" x2="2803.81" y2="470.87"/><line class="e" x1="2681.48" y1="458.54" x2="2685.81" y2="432.2"/><line class="e" x1="2687.48" y1="461.2" x2="2692.15" y2="436.2"/><line class="e" x1="2799.15" y1="495.54" x2="2799.15" y2="469.87"/><line class="e" x1="2792.53" y1="493.82" x2="2794.76" y2="468.25"/><line class="e" x1="2786" y1="492.1" x2="2789.88" y2="466.73"/><line class="e" x1="2773.54" y1="490.39" x2="2778.8" y2="465.26"/><line class="e" x1="2737.15" y1="480.56" x2="2744.46" y2="455.95"/><line class="e" x1="2692.15" y1="462.87" x2="2697.15" y2="438.27"/><path class="f" d="M2841,325.08a5.81,5.81,0,0,0,7.68,2.86c15.84-7.18,61.48-31.58,63.13-75.07,2-52.67-25.33-53.33-18-211.33-8-4.67-16.19,0-16.19,0s8.86,134.59-27.14,143.29c-52.67-37.29-63.33-136.63-98.67-165.29s-150.66-15.34-166-4.67c-16.66,18,22,40.67,51.34,50,20.54,6.54,32.25,14,37.43,18a6.46,6.46,0,0,0,6.83.64c6.45-3.27,20.61-8.49,34.4-.61,18.67,10.67,60.67,136,84.67,170C2819.5,279.82,2835.28,312.62,2841,325.08Z"/><path class="c" d="M2857.81,310.87c10.14,0,29.67-18.67,30.34-25.33s-1-11-5.34-7.34-8.66,11.34-17.66,17.67S2843.81,310.87,2857.81,310.87Z"/><path class="c" d="M2895.45,273.58c3.27-3.55,8.49-8.77,4-12.29s-9.56.53-8.75,3.71S2892,277.34,2895.45,273.58Z"/><path class="f" d="M3003.81,792.54c5.35,4.37,15.23,8.87,24,12.33a62.13,62.13,0,0,0,49.8-1.36c12-5.77,21.73-15.25,28.4-30,.76-1.68,1.49-3.56,2.21-5.59h0s42-50.12,107-103.87c3.52-2.91-1.74-13.29-9.24-13.54-8.5,4.75-75.64,53.74-80.82,53.62,7.84-26.63,19.21-55.43,38.82-78.62,41-48.5,53.5-71,47-98.5s-71-128.5-104.5-134.5c-13.5-2.5-23,22.2-30,107.6-.5,10.4,6-1.81,43.5,17.8s31,51.6,24,57.6-71,107-91,134-50.5,72-60.5,62C2986.15,768.87,2992.81,783.54,3003.81,792.54Z"/><path class="c" d="M3068.15,797.87c13.76-2.11,24.83-15.71,27.33-26.81,2.86-12.69-7.33-9.19-8.67-6.86s-8.75,18.72-15.66,20.67C3057,788.87,3058,799.43,3068.15,797.87Z"/><path class="c" d="M3047,798.11c4.43-4.65,8.75-10.32,5.25-10.57s-16.44,1.75-16,5.85C3036.61,797,3043.45,801.81,3047,798.11Z"/></svg>