<svg xmlns="http://www.w3.org/2000/svg" viewBox="0 0 853.1 183.51"><defs><style>.a{fill:#1d1d1b;}</style></defs><title>fest1_2018_logoAsset 5</title><path class="a" d="M97.42,38.18H40.55v34H93.21v34.23H40.55v73.19H0V4H97.42Z"/><path class="a" d="M263.3,38.18H204.58v34H260.4v34.23H204.58v39H263.3v34.22H164V4H263.3Z"/><path class="a" d="M423.66,46.86C410.49,35,399.17,34.23,394.17,34.23c-5.53,0-12.38.79-17.12,6.05a15.72,15.72,0,0,0-4.47,11.06c0,4.21,1.31,7.37,3.94,9.74,4.22,4,10.27,5.53,22.12,10l13.17,5c7.63,2.9,17.11,6.85,24,13.43,10.26,9.74,12.9,22.38,12.9,32.65,0,18.16-6.32,34-15.54,43.44-15.53,16.32-38.17,17.9-49.76,17.9-12.64,0-23.7-1.84-34.75-7.37-8.95-4.48-19.22-12.64-25.8-19.22l21.06-29c4.47,4.48,11.58,10.53,16.32,13.43a40.84,40.84,0,0,0,22.12,6.31c5.27,0,12.64-1,18.43-6a18.2,18.2,0,0,0,6.32-14.22c0-5.79-2.37-9.48-6.06-12.64-4.74-3.94-15.53-7.9-20.53-9.74l-14.48-5c-8.17-2.9-17.65-6.58-24.49-14C332.29,76.35,331,64,331,55.55c0-15.53,4.73-28.7,15.27-39.49C358.62,3.42,373.37,0,389.69,0a84.92,84.92,0,0,1,52.13,17.37Z"/><path class="a" d="M576.37,38.18V179.56H535.83V38.18H497.65V4h116.9V38.18Z"/><path class="a" d="M812.56,38.18h-25V4H853.1V179.56H812.56Z"/></svg>